# xmcd CD database file
#
# Track frame offsets:
#	150
#	14283
#	33016
#	49051
#	68396
#	86482
#	104785
#	125954
#	145763
#	158187
#
# Disc length: 2374 seconds
#
# Revision: 2
# Processed by: cddbd v1.5.2PL0 Copyright (c) Steve Scherf et al.
# Submitted via: CDex 1.72
#
DISCID=8009440a
DTITLE=Raymond, Corin [CDN-04-Record Lonesome Night-Cty) - Record Lonesome Night
DYEAR=2004
DGENRE=Country
TTITLE0=Days Go By
TTITLE1=That's Life
TTITLE2=Give It April (Give It May)
TTITLE3=Three Thousand Miles
TTITLE4=That Was Then This Is You
TTITLE5=One Fine Day
TTITLE6=Something To Lean On
TTITLE7=Ethel's Lounge
TTITLE8=Riding West On Dundas
TTITLE9=Record Lonesome Night
EXTD=YEAR: 2004
EXTT0=
EXTT1=
EXTT2=
EXTT3=
EXTT4=
EXTT5=
EXTT6=
EXTT7=
EXTT8=
EXTT9=
PLAYORDER=
